<?xml version="1.0" encoding="UTF-8"?>
<svg version="1.1" xmlns="http://www.w3.org/2000/svg" width="192" height="192">
<path d="M0 0 C1.70272777 1.46161158 3.39195836 2.93920734 5.0625 4.4375 C6.01189453 5.28054687 6.01189453 5.28054687 6.98046875 6.140625 C22.50201636 20.77421222 33.15484564 42.5195965 34.18505859 63.99194336 C34.53705948 76.45170822 34.51795887 88.37836825 31.0625 100.4375 C30.56943359 102.16613281 30.56943359 102.16613281 30.06640625 103.9296875 C22.74989597 126.66403431 6.18751076 145.57638943 -14.86450195 156.69702148 C-38.2804522 168.5911439 -63.42953396 170.72408965 -88.5859375 163.37109375 C-101.05859523 159.19977444 -112.14224091 153.23355182 -121.9375 144.4375 C-122.90558594 143.57511719 -123.87367187 142.71273437 -124.87109375 141.82421875 C-142.79333039 125.23167795 -152.85935267 102.3058934 -153.84326172 78.00952148 C-154.54293611 51.15879391 -145.8879805 27.32037321 -127.55566406 7.55566406 C-93.96320511 -27.33427067 -37.51044584 -30.08009796 0 0 Z " fill="#7EBC01" transform="translate(155.9375,22.5625)"/>
<path d="M0 0 C1.70272777 1.46161158 3.39195836 2.93920734 5.0625 4.4375 C6.01189453 5.28054687 6.01189453 5.28054687 6.98046875 6.140625 C22.50201636 20.77421222 33.15484564 42.5195965 34.18505859 63.99194336 C34.53705948 76.45170822 34.51795887 88.37836825 31.0625 100.4375 C30.56943359 102.16613281 30.56943359 102.16613281 30.06640625 103.9296875 C22.74989597 126.66403431 6.18751076 145.57638943 -14.86450195 156.69702148 C-38.2804522 168.5911439 -63.42953396 170.72408965 -88.5859375 163.37109375 C-101.05859523 159.19977444 -112.14224091 153.23355182 -121.9375 144.4375 C-122.90558594 143.57511719 -123.87367187 142.71273437 -124.87109375 141.82421875 C-142.79333039 125.23167795 -152.85935267 102.3058934 -153.84326172 78.00952148 C-154.54293611 51.15879391 -145.8879805 27.32037321 -127.55566406 7.55566406 C-93.96320511 -27.33427067 -37.51044584 -30.08009796 0 0 Z M-127.9375 18.4375 C-138.02693125 31.75958038 -146.24500927 48.50033101 -146.9375 65.4375 C-147.01484375 67.17580078 -147.01484375 67.17580078 -147.09375 68.94921875 C-147.7693563 91.60157205 -140.52366274 113.53625523 -125.5625 130.6875 C-124.04193001 132.29110452 -122.50013888 133.87486112 -120.9375 135.4375 C-120.16664062 136.20835937 -119.39578125 136.97921875 -118.6015625 137.7734375 C-101.09243796 154.3759407 -79.84259866 161.20187007 -56.0625 160.67578125 C-32.64383374 159.78751719 -11.18284796 150.01745118 4.98046875 132.89453125 C15.52957762 120.44539526 22.90425578 106.52025134 26.0625 90.4375 C26.31725098 89.29148315 26.31725098 89.29148315 26.57714844 88.12231445 C30.45799651 66.65466542 26.05401135 43.80930998 13.90039062 25.70654297 C-0.89601639 4.72928389 -21.06330834 -8.19233468 -46.19433594 -13.12597656 C-77.67119557 -18.13493215 -107.33707381 -5.43675703 -127.9375 18.4375 Z " fill="#EFB353" transform="translate(155.9375,22.5625)"/>
<path d="M0 0 C5.03881531 4.33061349 8.77561774 9.46910556 11.6875 15.4375 C11.6875 16.4275 11.6875 17.4175 11.6875 18.4375 C8.212385 18.99379311 5.14023058 19.20708453 1.6875 18.4375 C-0.255186 16.37118853 -1.4432622 14.23964757 -2.8203125 11.765625 C-6.28570664 6.3588844 -12.34730711 4.13868464 -18.3125 2.4375 C-28.28528691 1.18184644 -36.0071879 2.72759793 -44.3125 8.4375 C-50.31007276 13.40726291 -53.62443261 20.5227329 -54.6953125 28.171875 C-55.08081068 37.26963211 -51.98937603 45.54994248 -46.25 52.609375 C-40.22831028 58.29113062 -33.32286364 60.79662334 -25.125 61.0625 C-19.0637081 60.78182276 -14.50715507 59.51342412 -9.3125 56.4375 C-8.260625 55.90125 -7.20875 55.365 -6.125 54.8125 C-1.05303525 50.52950755 2.08724707 44.83851172 3.6875 38.4375 C6.9875 38.4375 10.2875 38.4375 13.6875 38.4375 C12.20656596 48.47494182 7.69184857 56.21120848 0 62.875 C-10.24876774 70.38048856 -21.03174549 71.48680497 -33.3125 70.4375 C-41.53572729 68.99962355 -48.48526454 64.26473546 -54.3125 58.4375 C-54.6425 68.0075 -54.9725 77.5775 -55.3125 87.4375 C-58.2825 87.4375 -61.2525 87.4375 -64.3125 87.4375 C-64.3823388 79.3960607 -64.43548174 71.35475039 -64.46793652 63.31308174 C-64.48352157 59.5780775 -64.50462684 55.84328237 -64.53881836 52.10839844 C-64.57167009 48.49682465 -64.5894067 44.88545066 -64.59713173 41.27373886 C-64.60262936 39.9031752 -64.61336348 38.53262115 -64.62969017 37.16214371 C-64.79160636 22.9934904 -62.32103375 12.8144263 -52.359375 2.39453125 C-37.94685553 -10.91151527 -15.77609511 -11.55332078 0 0 Z " fill="#FCFDF9" transform="translate(121.3125,64.5625)"/>
<path d="M0 0 C1.70272777 1.46161158 3.39195836 2.93920734 5.0625 4.4375 C6.01189453 5.28054687 6.01189453 5.28054687 6.98046875 6.140625 C22.50201636 20.77421222 33.15484564 42.5195965 34.18505859 63.99194336 C34.53705948 76.45170822 34.51795887 88.37836825 31.0625 100.4375 C30.56943359 102.16613281 30.56943359 102.16613281 30.06640625 103.9296875 C22.74989597 126.66403431 6.18751076 145.57638943 -14.86450195 156.69702148 C-38.2804522 168.5911439 -63.42953396 170.72408965 -88.5859375 163.37109375 C-101.05859523 159.19977444 -112.14224091 153.23355182 -121.9375 144.4375 C-122.90558594 143.57511719 -123.87367187 142.71273437 -124.87109375 141.82421875 C-142.79333039 125.23167795 -152.85935267 102.3058934 -153.84326172 78.00952148 C-154.54293611 51.15879391 -145.8879805 27.32037321 -127.55566406 7.55566406 C-93.96320511 -27.33427067 -37.51044584 -30.08009796 0 0 Z M-129.55859375 14.33984375 C-143.24617666 31.63316774 -150.09141945 50.53358368 -150.1875 72.5 C-150.208125 73.65177734 -150.22875 74.80355469 -150.25 75.99023438 C-150.3440456 96.9506466 -142.21596759 116.42974 -128.9375 132.4375 C-128.51339844 133.00726563 -128.08929688 133.57703125 -127.65234375 134.1640625 C-114.90493175 150.61485107 -92.46311667 161.19642314 -72.25390625 164.12109375 C-47.637265 166.4696779 -22.79073597 160.71237127 -3.1875 145.0625 C-1.42127389 143.53944995 0.3295039 141.99825643 2.0625 140.4375 C2.84367188 139.75042969 3.62484375 139.06335938 4.4296875 138.35546875 C16.91456134 126.71299989 24.73465696 110.74723164 29.0625 94.4375 C29.33066528 93.45330078 29.33066528 93.45330078 29.60424805 92.44921875 C35.15868344 70.28131509 30.42325472 46.73246445 19.14501953 27.22167969 C8.17292573 9.13776866 -7.35869915 -3.82918054 -26.9375 -11.5625 C-27.63617188 -11.84609375 -28.33484375 -12.1296875 -29.0546875 -12.421875 C-65.26447772 -25.81266535 -104.26673247 -13.66589832 -129.55859375 14.33984375 Z " fill="#0A4EA9" transform="translate(155.9375,22.5625)"/>
<path d="M0 0 C1.09924805 0.00483398 1.09924805 0.00483398 2.22070312 0.00976562 C2.94966797 -0.00634766 3.67863281 -0.02246094 4.4296875 -0.0390625 C9.72854055 -0.04391938 9.72854055 -0.04391938 12.29492188 1.65039062 C13.28320312 3.32226562 13.28320312 3.32226562 13.15820312 6.38476562 C12.28320312 9.32226562 12.28320312 9.32226562 9.28320312 11.32226562 C6.03320312 11.62304688 6.03320312 11.62304688 2.28320312 11.63476562 C0.42695313 11.65990234 0.42695313 11.65990234 -1.46679688 11.68554688 C-4.71679688 11.32226562 -4.71679688 11.32226562 -6.63476562 9.99414062 C-8.30461325 7.41401505 -8.03466673 5.31024225 -7.71679688 2.32226562 C-5.17479392 -0.21973733 -3.47455304 0.0350965 0 0 Z " fill="#94C82E" transform="translate(142.716796875,87.677734375)"/>
<path d="M0 0 C0.78503906 0.00322266 1.57007812 0.00644531 2.37890625 0.00976562 C3.16394531 -0.00634766 3.94898437 -0.02246094 4.7578125 -0.0390625 C7.03515625 -0.04101562 7.03515625 -0.04101562 10.87890625 0.32226562 C12.87890625 3.32226562 12.87890625 3.32226562 12.56640625 6.44726562 C11.87890625 9.32226562 11.87890625 9.32226562 10.87890625 10.32226562 C8.05474243 10.44889654 5.26595832 10.50747111 2.44140625 10.50976562 C1.65185547 10.52201172 0.86230469 10.53425781 0.04882812 10.546875 C-2.0091681 10.55213842 -4.06671384 10.44432848 -6.12109375 10.32226562 C-8.12109375 8.32226562 -8.12109375 8.32226562 -8.37109375 5.32226562 C-7.90168805 -0.31060274 -4.99385108 0.0471118 0 0 Z " fill="#FA9930" transform="translate(98.12109375,87.677734375)"/>
<path d="M0 0 C1.8871875 -0.02126953 1.8871875 -0.02126953 3.8125 -0.04296875 C7 0.1875 7 0.1875 9 2.1875 C9.3125 4.6875 9.3125 4.6875 9 7.1875 C5.41717765 9.57604824 3.68606967 9.45648802 -0.5625 9.4375 C-2.29693359 9.44523437 -2.29693359 9.44523437 -4.06640625 9.453125 C-7 9.1875 -7 9.1875 -9 7.1875 C-9.125 4.0625 -9.125 4.0625 -9 1.1875 C-6.02958551 -0.29770725 -3.30235553 0.0169178 0 0 Z " fill="#074FAF" transform="translate(123,88.8125)"/>
</svg>
