<svg width="18" height="18" viewBox="0 0 18 18" fill="none" xmlns="http://www.w3.org/2000/svg">
<path d="M5.94636 2.40932H5.78565C5.87404 2.40932 5.94636 2.337 5.94636 2.24861V2.40932H12.0535V2.24861C12.0535 2.337 12.1258 2.40932 12.2142 2.40932H12.0535V3.85575H13.4999V2.24861C13.4999 1.53945 12.9234 0.962891 12.2142 0.962891H5.78565C5.07649 0.962891 4.49993 1.53945 4.49993 2.24861V3.85575H5.94636V2.40932ZM16.0714 3.85575H1.9285C1.57292 3.85575 1.28564 4.14302 1.28564 4.49861V5.14146C1.28564 5.22986 1.35797 5.30218 1.44636 5.30218H2.65975L3.15596 15.8089C3.1881 16.4939 3.75462 17.0343 4.43966 17.0343H13.5602C14.2473 17.0343 14.8118 16.4959 14.8439 15.8089L15.3401 5.30218H16.5535C16.6419 5.30218 16.7142 5.22986 16.7142 5.14146V4.49861C16.7142 4.14302 16.4269 3.85575 16.0714 3.85575ZM13.4055 15.5879H4.59435L4.10819 5.30218H13.8917L13.4055 15.5879Z" fill="url(#paint0_linear_5565_1665)"/>
<defs>
<linearGradient id="paint0_linear_5565_1665" x1="1.28564" y1="17.0343" x2="20.1139" y2="8.24864" gradientUnits="userSpaceOnUse">
<stop stop-color="#00A653"/>
<stop offset="1" stop-color="#00AEEE"/>
</linearGradient>
</defs>
</svg>
