<svg width="11" height="11" viewBox="0 0 11 11" fill="none" xmlns="http://www.w3.org/2000/svg">
<path d="M10.5 0.857153C10.5 0.76243 10.4595 0.671587 10.3873 0.604608C10.3152 0.537628 10.2174 0.5 10.1154 0.5H0.884615C0.782609 0.5 0.68478 0.537628 0.612651 0.604608C0.540522 0.671587 0.5 0.76243 0.5 0.857153V2.28576C0.500017 2.37384 0.535083 2.45881 0.598461 2.52434L3.96154 5.99443V9.42881C3.9616 9.50374 3.98704 9.57675 4.03425 9.63752C4.08146 9.69828 4.14806 9.74372 4.22462 9.76739L6.53231 10.4817C6.5901 10.4996 6.65163 10.5044 6.71185 10.4959C6.77206 10.4874 6.82923 10.4657 6.87865 10.4326C6.92808 10.3996 6.96834 10.3561 6.99612 10.3058C7.0239 10.2554 7.03842 10.1997 7.03846 10.1431V5.99443L10.4015 2.52434C10.4649 2.45881 10.5 2.37384 10.5 2.28576V0.857153Z" fill="black" fill-opacity="0.85"/>
</svg>
